<?xml version="1.0" encoding="UTF-8"?>
<svg width="154px" height="154px" viewBox="0 0 154 154" version="1.1" xmlns="http://www.w3.org/2000/svg" xmlns:xlink="http://www.w3.org/1999/xlink">
    <!-- Generator: Sketch 43.2 (39069) - http://www.bohemiancoding.com/sketch -->
    <title>My Labs prop 01</title>
    <desc>Created with Sketch.</desc>
    <defs></defs>
    <g id="Logo" stroke="none" stroke-width="1" fill="none" fill-rule="evenodd">
        <g id="My-Labs-prop-01" transform="translate(-86.000000, -455.000000)">
            <g id="L-Copy" transform="translate(179.000000, 482.000000)">
                <path d="M17.4962853,50.7655246 L17.4962853,8.75267666 C17.4962853,3.91870682 13.5796084,0 8.74814264,0 C3.91667687,0 0,3.91870682 0,8.75267666 L0,50.7655246 C0,55.5994945 3.91667687,59.5182013 8.74814264,59.5182013 C13.5796084,59.5182013 17.4962853,55.5994945 17.4962853,50.7655246 Z" id="Line-Copy-33" fill="#F2D843" fill-rule="nonzero"></path>
                <path d="M17.4962853,92.7783726 L17.4962853,50.7655246 C17.4962853,45.9315548 13.5796084,42.012848 8.74814264,42.012848 C3.91667687,42.012848 0,45.9315548 0,50.7655246 L0,92.7783726 C0,97.6123424 3.91667687,101.531049 8.74814264,101.531049 C13.5796084,101.531049 17.4962853,97.6123424 17.4962853,92.7783726 Z" id="Line-Copy-32" fill="#A0C05D" fill-rule="nonzero"></path>
                <path d="M0,50.7655246 L0,51.1051074 C0,55.7515309 3.91667687,59.5182013 8.74814264,59.5182013 C13.5796084,59.5182013 17.4962853,55.7515309 17.4962853,51.1051074 L17.4962853,50.7655246 L17.4962853,50.4259418 C17.4962853,45.7795184 13.5796084,42.012848 8.74814264,42.012848 C3.91667687,42.012848 0,45.7795184 0,50.4259418 L0,50.7655246 Z" id="Combined-Shape-Copy-10" fill="#BBA947" fill-rule="nonzero"></path>
                <ellipse id="Oval-Copy-15" fill="#FFFFFF" cx="8.74814264" cy="50.4154176" rx="2.44947994" ry="2.45074946"></ellipse>
                <g id="Group-2" transform="translate(29.743685, 92.778373) rotate(-90.000000) translate(-29.743685, -92.778373) translate(20.995542, 63.019272)">
                    <path d="M17.4962853,50.7655246 L17.4962853,8.75267666 C17.4962853,3.91870682 13.5796084,0 8.74814264,0 C3.91667687,0 0,3.91870682 0,8.75267666 L0,50.7655246 C0,55.5994945 3.91667687,59.5182013 8.74814264,59.5182013 C13.5796084,59.5182013 17.4962853,55.5994945 17.4962853,50.7655246 Z" id="Line-Copy-34" fill="#F05342" fill-rule="nonzero"></path>
                    <ellipse id="Oval-Copy-16" fill="#FFFFFF" cx="8.74814264" cy="8.40256959" rx="2.44947994" ry="2.45074946"></ellipse>
                </g>
                <path d="M9.03242351,101.526515 C13.7323143,101.37639 17.4962853,97.5171706 17.4962853,92.7783726 L17.4962853,84.0302299 L8.73726101,84.0302299 C4.07915664,84.0302299 0.27093005,87.6671043 -2.33667252e-15,92.2548264 L0,92.7783726 C0,96.6059466 2.45559683,99.859688 5.87655994,101.048594 C6.7729969,101.358302 7.73547462,101.526515 8.73726101,101.526515 L9.03242351,101.526515 Z" id="Combined-Shape" fill="#B75348" fill-rule="nonzero"></path>
                <ellipse id="Oval-Copy-17" fill="#FFFFFF" cx="8.74814264" cy="92.4282655" rx="2.44947994" ry="2.45074946"></ellipse>
            </g>
            <g id="M-Copy" transform="translate(87.000000, 482.000000)">
                <path d="M17.4962853,50.7655246 L17.4962853,8.75267666 C17.4962853,3.91870682 13.5796084,0 8.74814264,0 C3.91667687,0 0,3.91870682 0,8.75267666 L0,50.7655246 C0,55.5994945 3.91667687,59.5182013 8.74814264,59.5182013 C13.5796084,59.5182013 17.4962853,55.5994945 17.4962853,50.7655246 Z" id="Line-Copy" fill="#F2D843" fill-rule="nonzero"></path>
                <path d="M46.4114708,34.0391376 L14.7940712,2.52950166 C11.3832496,-0.869694602 5.88360001,-0.839076902 2.51025998,2.59788821 C-0.863080045,6.03485332 -0.832695241,11.5766571 2.57812634,14.9758533 L34.1955259,46.4854893 C37.6063475,49.8846856 43.1059971,49.8540679 46.4793372,46.4171028 C49.8526772,42.9801377 49.8222924,37.4383339 46.4114708,34.0391376 Z" id="Line-Copy-2" fill="#53B4BB" fill-rule="nonzero"></path>
                <path d="M17.4962853,92.7783726 L17.4962853,50.7655246 C17.4962853,45.9315548 13.5796084,42.012848 8.74814264,42.012848 C3.91667687,42.012848 0,45.9315548 0,50.7655246 L0,92.7783726 C0,97.6123424 3.91667687,101.531049 8.74814264,101.531049 C13.5796084,101.531049 17.4962853,97.6123424 17.4962853,92.7783726 Z" id="Line" fill="#994F80" fill-rule="nonzero"></path>
                <path d="M0,50.7655246 L0,51.1051074 C0,55.7515309 3.91667687,59.5182013 8.74814264,59.5182013 C13.5796084,59.5182013 17.4962853,55.7515309 17.4962853,51.1051074 L17.4962853,50.7655246 L17.4962853,50.4259418 C17.4962853,45.7795184 13.5796084,42.012848 8.74814264,42.012848 C3.91667687,42.012848 0,45.7795184 0,50.4259418 L0,50.7655246 Z" id="Combined-Shape" fill="#BBA947" fill-rule="nonzero"></path>
                <ellipse id="Oval-Copy-7" fill="#FFFFFF" cx="8.74814264" cy="50.4154176" rx="2.44947994" ry="2.45074946"></ellipse>
                <g id="Group" transform="translate(56.682764, 51.000000) scale(-1, 1) translate(-56.682764, -51.000000) translate(32.182764, 0.000000)">
                    <path d="M17.4962853,50.7655246 L17.4962853,8.75267666 C17.4962853,3.91870682 13.5796084,0 8.74814264,0 C3.91667687,0 0,3.91870682 0,8.75267666 L0,50.7655246 C0,55.5994945 3.91667687,59.5182013 8.74814264,59.5182013 C13.5796084,59.5182013 17.4962853,55.5994945 17.4962853,50.7655246 Z" id="Line-Copy-28" fill="#F05342" fill-rule="nonzero"></path>
                    <path d="M46.4114708,34.0391376 L14.7940712,2.52950166 C11.3832496,-0.869694602 5.88360001,-0.839076902 2.51025998,2.59788821 C-0.863080045,6.03485332 -0.832695241,11.5766571 2.57812634,14.9758533 L34.1955259,46.4854893 C37.6063475,49.8846856 43.1059971,49.8540679 46.4793372,46.4171028 C49.8526772,42.9801377 49.8222924,37.4383339 46.4114708,34.0391376 Z" id="Line-Copy-27" fill="#A0C05D" fill-rule="nonzero"></path>
                    <path d="M17.4962853,92.7783726 L17.4962853,50.7655246 C17.4962853,45.9315548 13.5796084,42.012848 8.74814264,42.012848 C3.91667687,42.012848 0,45.9315548 0,50.7655246 L0,92.7783726 C0,97.6123424 3.91667687,101.531049 8.74814264,101.531049 C13.5796084,101.531049 17.4962853,97.6123424 17.4962853,92.7783726 Z" id="Line-Copy-26" fill="#53B4BB" fill-rule="nonzero"></path>
                    <path d="M0,50.7655246 L0,51.1051074 C0,55.7515309 3.91667687,59.5182013 8.74814264,59.5182013 C13.5796084,59.5182013 17.4962853,55.7515309 17.4962853,51.1051074 L17.4962853,50.7655246 L17.4962853,50.4259418 C17.4962853,45.7795184 13.5796084,42.012848 8.74814264,42.012848 C3.91667687,42.012848 0,45.7795184 0,50.4259418 L0,50.7655246 Z" id="Combined-Shape-Copy-7" fill="#3F898E" fill-rule="nonzero"></path>
                    <ellipse id="Oval-Copy-12" fill="#FFFFFF" cx="8.74814264" cy="50.4154176" rx="2.44947994" ry="2.45074946"></ellipse>
                </g>
                <path d="M40.5913815,49.0102024 C42.9118503,48.9389984 45.2085165,48.0737558 46.9700006,46.4171028 C50.6244528,42.9801377 50.591536,37.4383339 46.8964787,34.0391376 L40.5913815,28.2388857 L34.2862842,34.0391376 C30.5912269,37.4383339 30.5583101,42.9801377 34.2127623,46.4171028 C35.9742464,48.0737558 38.2709126,48.9389984 40.5913815,49.0102024 L40.5913815,49.0102024 Z" id="Combined-Shape" fill="#728942" fill-rule="nonzero"></path>
                <ellipse id="Oval-Copy-13" fill="#FFFFFF" cx="40.5913819" cy="39.9122056" rx="2.44947994" ry="2.45074946"></ellipse>
                <g id="Group-3" fill-rule="nonzero" fill="#3F898E">
                    <path d="M0,8.75625619 L0,8.74853915 C0.000966245229,6.526027 0.83677181,4.30295203 2.51025998,2.59789529 C5.88360001,-0.839079189 11.3832496,-0.869696973 14.7940712,2.52950856 L16.725097,4.45395799 C17.2205293,5.5516211 17.4962853,6.76983288 17.4962853,8.05248448 L17.4962853,29.8432471 L2.57812634,14.9758942 C0.861345668,13.2649602 0.000980347572,11.0112068 -1.39327569e-14,8.75625618 Z" id="Combined-Shape"></path>
                </g>
                <g id="Group-3-Copy" transform="translate(72.182764, 15.000000) scale(-1, 1) translate(-72.182764, -15.000000) translate(63.182764, 0.000000)" fill-rule="nonzero" fill="#D27946">
                    <path d="M0,8.75625618 L0,8.74853915 C0.000966245229,6.526027 0.83677181,4.30295203 2.51025998,2.59789529 C5.88360001,-0.839079189 11.3832496,-0.869696973 14.7940712,2.52950856 L16.725097,4.45395799 C17.2205293,5.5516211 17.4962853,6.76983288 17.4962853,8.05248448 L17.4962853,29.8432471 L2.57812634,14.9758942 C0.861345668,13.2649602 0.000980347572,11.0112068 -1.3965825e-14,8.75625618 Z" id="Combined-Shape"></path>
                </g>
                <ellipse id="Oval-Copy-24" fill="#FFFFFF" cx="9.09806835" cy="8.40256959" rx="2.44947994" ry="2.45074946"></ellipse>
                <ellipse id="Oval-Copy-25" fill="#FFFFFF" cx="72.4346211" cy="8.40256959" rx="2.44947994" ry="2.45074946"></ellipse>
            </g>
        </g>
    </g>
</svg>